<?xml version="1.0" encoding="UTF-8"?>
<!DOCTYPE svg PUBLIC "-//W3C//DTD SVG 1.1//EN" "http://www.w3.org/Graphics/SVG/1.1/DTD/svg11.dtd">
<svg xmlns="http://www.w3.org/2000/svg" version="1.1" width="389px" height="94px" style="shape-rendering:geometricPrecision; text-rendering:geometricPrecision; image-rendering:optimizeQuality; fill-rule:evenodd; clip-rule:evenodd" xmlns:xlink="http://www.w3.org/1999/xlink">
<g><path style="opacity:0.315" fill="#030303" d="M 21.5,9.5 C 30.8393,9.33355 40.1726,9.50021 49.5,10C 52.2134,11.2753 55.0467,12.1086 58,12.5C 68.504,8.56202 79.004,8.56202 89.5,12.5C 99.9988,8.32206 110.332,8.65539 120.5,13.5C 123.495,12.3364 126.495,11.1697 129.5,10C 146.833,9.33333 164.167,9.33333 181.5,10C 187.426,11.5846 191.926,15.0846 195,20.5C 199.139,14.8481 204.639,11.3481 211.5,10C 225.057,9.7379 238.557,9.57123 252,9.5C 257.403,9.3585 262.569,10.3585 267.5,12.5C 270.248,11.961 272.915,11.1277 275.5,10C 296.058,9.64005 316.558,9.47339 337,9.5C 342.403,9.3585 347.569,10.3585 352.5,12.5C 361.939,8.37404 371.272,8.5407 380.5,13C 382.123,15.0795 383.623,17.2462 385,19.5C 386.566,29.7733 386.899,40.1066 386,50.5C 381.898,68.6009 370.565,77.9342 352,78.5C 346.35,78.2111 340.85,77.2111 335.5,75.5C 330.414,77.4339 325.081,78.4339 319.5,78.5C 310.525,78.044 301.525,77.8774 292.5,78C 289.723,77.3577 287.056,76.5244 284.5,75.5C 273.157,79.4501 261.824,79.4501 250.5,75.5C 247.752,76.039 245.085,76.8723 242.5,78C 231.5,78.6667 220.5,78.6667 209.5,78C 203.648,76.6435 198.648,73.8102 194.5,69.5C 191.063,73.782 186.73,76.6153 181.5,78C 170.299,78.8007 159.133,78.634 148,77.5C 143.539,78.2471 139.039,78.7471 134.5,79C 128.917,88.1944 121.25,90.5277 111.5,86C 109.47,84.1038 107.803,81.9371 106.5,79.5C 95.8393,78.7101 85.1726,78.0435 74.5,77.5C 56.1789,78.5997 37.8456,78.7664 19.5,78C 11.0023,76.5116 5.50229,71.6783 3,63.5C 1.02862,51.4958 1.02862,39.4958 3,27.5C 5.78937,17.8753 11.956,11.8753 21.5,9.5 Z"/></g>
<g><path style="opacity:0.999" fill="#f5f5f5" d="M 19.5,32.5 C 18.3357,38.3494 18.3357,44.3494 19.5,50.5C 21.9029,50.552 24.2362,50.2186 26.5,49.5C 29.5,49.5 32.5,49.5 35.5,49.5C 35.5,46.1667 35.5,42.8333 35.5,39.5C 39.5546,39.1758 43.5546,39.5091 47.5,40.5C 46.1387,42.0284 44.972,43.6951 44,45.5C 43.8213,49.0252 43.3213,52.3586 42.5,55.5C 32.1667,55.5 21.8333,55.5 11.5,55.5C 11.5,45.8333 11.5,36.1667 11.5,26.5C 12.1434,23.0125 14.1434,20.5125 17.5,19C 26.8333,18.3333 36.1667,18.3333 45.5,19C 42.8221,20.8412 41.1555,23.3412 40.5,26.5C 35.5329,27.329 30.5329,27.829 25.5,28C 22.7879,28.6386 20.7879,30.1386 19.5,32.5 Z"/></g>
<g><path style="opacity:0.999" fill="#f6f6f6" d="M 75.5,23.5 C 74.3775,25.2884 74.2109,27.2884 75,29.5C 76.8434,34.8954 78.6767,40.2287 80.5,45.5C 80.8174,48.5719 80.4841,51.5719 79.5,54.5C 78.7348,53.3881 77.7348,52.7214 76.5,52.5C 73.4824,52.2962 70.4824,51.9629 67.5,51.5C 67.7822,50.2223 68.4489,49.2223 69.5,48.5C 70.791,48.7373 71.791,48.404 72.5,47.5C 72.2627,46.209 72.596,45.209 73.5,44.5C 75.1179,40.6887 74.4513,37.1887 71.5,34C 66.7354,33.2741 64.4021,35.4408 64.5,40.5C 64.5,40.8333 64.5,41.1667 64.5,41.5C 62.877,45.9777 61.5437,50.6444 60.5,55.5C 58.0465,57.0598 55.3798,58.0598 52.5,58.5C 55.1916,45.4001 58.3582,32.4001 62,19.5C 67.1139,18.1958 72.2805,18.1958 77.5,19.5C 76.3698,20.6223 75.7031,21.9557 75.5,23.5 Z"/></g>
<g><path style="opacity:1" fill="#f5f5f5" d="M 106.5,20.5 C 105.848,21.4486 105.514,22.6153 105.5,24C 106.082,28.9277 108.415,32.761 112.5,35.5C 113.584,35.315 114.584,34.9817 115.5,34.5C 115.81,35.7383 116.31,35.7383 117,34.5C 119.96,29.4135 122.794,24.2469 125.5,19C 130.167,18.3333 134.833,18.3333 139.5,19C 138.696,20.7713 137.529,22.2713 136,23.5C 135.667,34.1667 135.333,44.8333 135,55.5C 133.644,56.3802 132.144,56.7135 130.5,56.5C 129.5,56.5 128.5,56.5 127.5,56.5C 128.796,52.2397 129.796,47.9063 130.5,43.5C 128.801,43.3796 127.135,43.0463 125.5,42.5C 123.347,42.5613 122.014,43.5613 121.5,45.5C 119.684,49.7517 118.018,54.085 116.5,58.5C 115.175,59.9526 114.342,59.6192 114,57.5C 112.359,52.241 110.525,47.0743 108.5,42C 105.901,41.231 103.401,41.3977 101,42.5C 100.501,46.8206 100.334,51.1539 100.5,55.5C 98.2186,56.3385 95.8852,57.3385 93.5,58.5C 92.8248,45.2709 92.1581,32.1042 91.5,19C 94,18.8333 96.5,18.6667 99,18.5C 101.929,18.5248 104.429,19.1914 106.5,20.5 Z"/></g>
<g><path style="opacity:1" fill="#f4f4f4" d="M 158.5,27.5 C 157.5,27.5 156.5,27.5 155.5,27.5C 155.003,31.7592 155.669,35.7592 157.5,39.5C 155.688,42.8989 155.021,46.5656 155.5,50.5C 157.06,50.5191 158.56,50.8524 160,51.5C 161.03,51.1639 161.53,50.4972 161.5,49.5C 166.844,49.334 172.177,49.5006 177.5,50C 175.595,51.8153 173.928,53.8153 172.5,56C 165.508,56.4996 158.508,56.6663 151.5,56.5C 150.5,56.5 149.5,56.5 148.5,56.5C 148.5,49.5 148.5,42.5 148.5,35.5C 150.081,33.8583 150.747,31.8583 150.5,29.5C 148.5,29.5 146.5,29.5 144.5,29.5C 144.751,26.091 144.417,22.7577 143.5,19.5C 154.819,18.3342 166.152,18.1675 177.5,19C 175.595,20.8153 173.928,22.8153 172.5,25C 168.167,25.3333 163.833,25.6667 159.5,26C 158.944,26.3826 158.611,26.8826 158.5,27.5 Z"/></g>
<g><path style="opacity:0.999" fill="#f5f5f5" d="M 209.5,32.5 C 208.336,38.3494 208.336,44.3494 209.5,50.5C 211.903,50.552 214.236,50.2186 216.5,49.5C 219.5,49.5 222.5,49.5 225.5,49.5C 225.5,46.1667 225.5,42.8333 225.5,39.5C 229.884,39.1744 234.217,39.5078 238.5,40.5C 236.473,41.6933 234.973,43.36 234,45.5C 233.821,49.0252 233.321,52.3586 232.5,55.5C 222.167,55.5 211.833,55.5 201.5,55.5C 201.5,45.8333 201.5,36.1667 201.5,26.5C 202.143,23.0125 204.143,20.5125 207.5,19C 216.833,18.3333 226.167,18.3333 235.5,19C 232.822,20.8412 231.155,23.3412 230.5,26.5C 225.533,27.329 220.533,27.829 215.5,28C 212.788,28.6386 210.788,30.1386 209.5,32.5 Z"/></g>
<g><path style="opacity:1" fill="#f7f7f7" d="M 250.5,24.5 C 249.835,27.3138 249.502,30.3138 249.5,33.5C 249.517,36.9134 250.184,39.9134 251.5,42.5C 251.414,43.4959 251.748,44.3292 252.5,45C 254.134,45.4935 255.801,45.6602 257.5,45.5C 262.121,48.31 266.288,47.6433 270,43.5C 271.438,35.2767 271.938,26.9433 271.5,18.5C 275.846,18.3343 280.179,18.501 284.5,19C 282.627,20.7038 280.96,22.5372 279.5,24.5C 278.672,30.3193 278.172,36.3193 278,42.5C 277.153,44.8543 276.32,47.1877 275.5,49.5C 273.763,51.5497 271.763,53.383 269.5,55C 264.833,55.6667 260.167,55.6667 255.5,55C 254.584,54.7216 253.918,54.2216 253.5,53.5C 250.936,49.2634 247.27,46.5967 242.5,45.5C 242.804,36.7786 242.471,28.112 241.5,19.5C 245.795,18.3391 250.129,18.1725 254.5,19C 253.335,20.9917 252.002,22.825 250.5,24.5 Z"/></g>
<g><path style="opacity:1" fill="#f7f7f7" d="M 318.5,24.5 C 317.034,25.347 316.2,26.6803 316,28.5C 313.865,26.7215 311.365,26.0548 308.5,26.5C 298.635,23.4815 294.801,27.1481 297,37.5C 298.678,39.5532 300.511,39.8866 302.5,38.5C 304.527,38.6621 306.527,38.4955 308.5,38C 309.615,35.8687 310.948,34.0354 312.5,32.5C 313.794,31.7101 314.961,30.7101 316,29.5C 317.225,34.0853 317.725,38.752 317.5,43.5C 316.833,44.1667 316.167,44.8333 315.5,45.5C 314.504,45.4142 313.671,45.7476 313,46.5C 312.105,49.4663 312.605,52.1329 314.5,54.5C 312.741,55.754 311.241,55.4206 310,53.5C 309.434,51.2774 308.6,49.2774 307.5,47.5C 304.127,44.9524 300.793,44.9524 297.5,47.5C 296.025,50.3259 294.692,53.3259 293.5,56.5C 292.167,57.1667 290.833,57.8333 289.5,58.5C 288.833,45.8333 288.167,33.1667 287.5,20.5C 292.624,19.1714 298.124,18.5048 304,18.5C 309.5,18.6667 315,18.8333 320.5,19C 321.92,21.5736 321.253,23.407 318.5,24.5 Z"/></g>
<g><path style="opacity:1" fill="#f8f8f8" d="M 335.5,24.5 C 334.835,27.3138 334.502,30.3138 334.5,33.5C 334.517,36.9134 335.184,39.9134 336.5,42.5C 336.414,43.4959 336.748,44.3292 337.5,45C 339.134,45.4935 340.801,45.6602 342.5,45.5C 347.121,48.31 351.288,47.6433 355,43.5C 356.438,35.2767 356.938,26.9433 356.5,18.5C 360.514,18.3345 364.514,18.5012 368.5,19C 367.335,20.9917 366.002,22.825 364.5,24.5C 363.672,30.3193 363.172,36.3193 363,42.5C 362.153,44.8543 361.32,47.1877 360.5,49.5C 358.763,51.5497 356.763,53.383 354.5,55C 349.833,55.6667 345.167,55.6667 340.5,55C 339.584,54.7216 338.918,54.2216 338.5,53.5C 335.703,49.3637 332.037,46.3637 327.5,44.5C 327.803,36.1114 327.47,27.778 326.5,19.5C 330.795,18.3391 335.129,18.1725 339.5,19C 338.335,20.9917 337.002,22.825 335.5,24.5 Z"/></g>
<g><path style="opacity:1" fill="#ababab" d="M 250.5,24.5 C 250.303,30.5451 250.637,36.5451 251.5,42.5C 250.184,39.9134 249.517,36.9134 249.5,33.5C 249.502,30.3138 249.835,27.3138 250.5,24.5 Z"/></g>
<g><path style="opacity:1" fill="#a7a7a7" d="M 279.5,24.5 C 279.666,31.175 279.5,37.8417 279,44.5C 278.303,46.5844 277.136,48.2511 275.5,49.5C 276.32,47.1877 277.153,44.8543 278,42.5C 278.172,36.3193 278.672,30.3193 279.5,24.5 Z"/></g>
<g><path style="opacity:1" fill="#ababab" d="M 335.5,24.5 C 335.303,30.5451 335.637,36.5451 336.5,42.5C 335.184,39.9134 334.517,36.9134 334.5,33.5C 334.502,30.3138 334.835,27.3138 335.5,24.5 Z"/></g>
<g><path style="opacity:1" fill="#a7a7a7" d="M 364.5,24.5 C 364.666,31.175 364.5,37.8417 364,44.5C 363.303,46.5844 362.136,48.2511 360.5,49.5C 361.32,47.1877 362.153,44.8543 363,42.5C 363.172,36.3193 363.672,30.3193 364.5,24.5 Z"/></g>
<g><path style="opacity:0.87" fill="#080808" d="M 308.5,26.5 C 311.734,27.0886 313.067,29.0886 312.5,32.5C 310.948,34.0354 309.615,35.8687 308.5,38C 306.527,38.4955 304.527,38.6621 302.5,38.5C 297.848,37.8853 296.348,35.2187 298,30.5C 298.5,28.6667 299.667,27.5 301.5,27C 303.81,26.5034 306.143,26.3367 308.5,26.5 Z"/></g>
<g><path style="opacity:1" fill="#c8c8c8" d="M 318.5,24.5 C 318.823,31.0221 318.49,37.3554 317.5,43.5C 317.725,38.752 317.225,34.0853 316,29.5C 314.961,30.7101 313.794,31.7101 312.5,32.5C 313.067,29.0886 311.734,27.0886 308.5,26.5C 311.365,26.0548 313.865,26.7215 316,28.5C 316.2,26.6803 317.034,25.347 318.5,24.5 Z"/></g>
<g><path style="opacity:0.728" fill="#494949" d="M 287.5,20.5 C 288.167,33.1667 288.833,45.8333 289.5,58.5C 289.44,59.0431 289.107,59.3764 288.5,59.5C 287.501,46.5171 287.168,33.5171 287.5,20.5 Z"/></g>
<g><path style="opacity:1" fill="#999999" d="M 308.5,26.5 C 306.143,26.3367 303.81,26.5034 301.5,27C 299.667,27.5 298.5,28.6667 298,30.5C 296.348,35.2187 297.848,37.8853 302.5,38.5C 300.511,39.8866 298.678,39.5532 297,37.5C 294.801,27.1481 298.635,23.4815 308.5,26.5 Z"/></g>
<g><path style="opacity:0.458" fill="#747474" d="M 11.5,26.5 C 11.5,36.1667 11.5,45.8333 11.5,55.5C 21.8333,55.5 32.1667,55.5 42.5,55.5C 32.2642,56.3771 21.9309,56.8771 11.5,57C 10.1712,46.7352 10.1712,36.5686 11.5,26.5 Z"/></g>
<g><path style="opacity:1" fill="#696969" d="M 106.5,20.5 C 106.201,22.604 106.534,24.604 107.5,26.5C 109.854,29.5211 112.521,32.1877 115.5,34.5C 114.584,34.9817 113.584,35.315 112.5,35.5C 108.415,32.761 106.082,28.9277 105.5,24C 105.514,22.6153 105.848,21.4486 106.5,20.5 Z"/></g>
<g><path style="opacity:1" fill="#6c6c6c" d="M 144.5,29.5 C 146.5,29.5 148.5,29.5 150.5,29.5C 150.747,31.8583 150.081,33.8583 148.5,35.5C 148.167,35.5 147.833,35.5 147.5,35.5C 148.038,33.8828 148.371,32.2161 148.5,30.5C 146.901,30.7678 145.568,30.4345 144.5,29.5 Z"/></g>
<g><path style="opacity:0.458" fill="#747474" d="M 201.5,26.5 C 201.5,36.1667 201.5,45.8333 201.5,55.5C 211.833,55.5 222.167,55.5 232.5,55.5C 222.264,56.3771 211.931,56.8771 201.5,57C 200.171,46.7352 200.171,36.5686 201.5,26.5 Z"/></g>
<g><path style="opacity:1" fill="#7b7b7b" d="M 75.5,23.5 C 77.4812,30.7586 79.1479,38.0919 80.5,45.5C 78.6767,40.2287 76.8434,34.8954 75,29.5C 74.2109,27.2884 74.3775,25.2884 75.5,23.5 Z"/></g>
<g><path style="opacity:1" fill="#b5b5b5" d="M 73.5,44.5 C 73.7947,42.2646 73.4614,40.2646 72.5,38.5C 72.0377,37.1201 71.0377,36.4534 69.5,36.5C 67.4227,37.3228 65.756,38.6561 64.5,40.5C 64.4021,35.4408 66.7354,33.2741 71.5,34C 74.4513,37.1887 75.1179,40.6887 73.5,44.5 Z"/></g>
<g><path style="opacity:1" fill="#afafaf" d="M 19.5,32.5 C 19.3243,37.8797 19.6576,43.213 20.5,48.5C 22.7354,48.2053 24.7354,48.5386 26.5,49.5C 24.2362,50.2186 21.9029,50.552 19.5,50.5C 18.3357,44.3494 18.3357,38.3494 19.5,32.5 Z"/></g>
<g><path style="opacity:1" fill="#afafaf" d="M 209.5,32.5 C 209.324,37.8797 209.658,43.213 210.5,48.5C 212.735,48.2053 214.735,48.5386 216.5,49.5C 214.236,50.2186 211.903,50.552 209.5,50.5C 208.336,44.3494 208.336,38.3494 209.5,32.5 Z"/></g>
<g><path style="opacity:1" fill="#7c7c7c" d="M 157.5,30.5 C 157.448,32.9029 157.781,35.2362 158.5,37.5C 157.007,36.6879 156.34,35.3545 156.5,33.5C 156.52,32.2739 156.853,31.2739 157.5,30.5 Z"/></g>
<g><path style="opacity:0.929" fill="#060606" d="M 72.5,38.5 C 71.8885,41.696 71.8885,44.696 72.5,47.5C 71.791,48.404 70.791,48.7373 69.5,48.5C 67.8333,48.5 66.1667,48.5 64.5,48.5C 64.5,46.1667 64.5,43.8333 64.5,41.5C 64.5,41.1667 64.5,40.8333 64.5,40.5C 65.756,38.6561 67.4227,37.3228 69.5,36.5C 71.0377,36.4534 72.0377,37.1201 72.5,38.5 Z"/></g>
<g><path style="opacity:0.934" fill="#afafaf" d="M 147.5,35.5 C 147.833,35.5 148.167,35.5 148.5,35.5C 148.5,42.5 148.5,49.5 148.5,56.5C 149.5,56.5 150.5,56.5 151.5,56.5C 150.713,58.1042 149.38,58.7709 147.5,58.5C 147.5,50.8333 147.5,43.1667 147.5,35.5 Z"/></g>
<g><path style="opacity:1" fill="#d3d3d3" d="M 158.5,27.5 C 157.89,28.391 157.557,29.391 157.5,30.5C 156.853,31.2739 156.52,32.2739 156.5,33.5C 156.34,35.3545 157.007,36.6879 158.5,37.5C 164.176,37.3339 169.843,37.5006 175.5,38C 174.672,38.9147 173.672,39.5814 172.5,40C 167.833,40.3333 163.167,40.6667 158.5,41C 157.409,43.0639 157.242,45.2305 158,47.5C 158.71,48.9733 159.876,49.6399 161.5,49.5C 161.53,50.4972 161.03,51.1639 160,51.5C 158.56,50.8524 157.06,50.5191 155.5,50.5C 155.021,46.5656 155.688,42.8989 157.5,39.5C 155.669,35.7592 155.003,31.7592 155.5,27.5C 156.5,27.5 157.5,27.5 158.5,27.5 Z"/></g>
<g><path style="opacity:0.961" fill="#5c5c5c" d="M 72.5,38.5 C 73.4614,40.2646 73.7947,42.2646 73.5,44.5C 72.596,45.209 72.2627,46.209 72.5,47.5C 71.8885,44.696 71.8885,41.696 72.5,38.5 Z"/></g>
<g><path style="opacity:1" fill="#ababab" d="M 130.5,56.5 C 129.713,58.1042 128.38,58.7709 126.5,58.5C 126.352,53.6812 127.018,49.0145 128.5,44.5C 126.05,44.298 123.717,44.6314 121.5,45.5C 122.014,43.5613 123.347,42.5613 125.5,42.5C 127.135,43.0463 128.801,43.3796 130.5,43.5C 129.796,47.9063 128.796,52.2397 127.5,56.5C 128.5,56.5 129.5,56.5 130.5,56.5 Z"/></g>
<g><path style="opacity:1" fill="#5f5f5f" d="M 251.5,42.5 C 253.887,42.9121 255.887,43.9121 257.5,45.5C 255.801,45.6602 254.134,45.4935 252.5,45C 251.748,44.3292 251.414,43.4959 251.5,42.5 Z"/></g>
<g><path style="opacity:1" fill="#5f5f5f" d="M 336.5,42.5 C 338.887,42.9121 340.887,43.9121 342.5,45.5C 340.801,45.6602 339.134,45.4935 337.5,45C 336.748,44.3292 336.414,43.4959 336.5,42.5 Z"/></g>
<g><path style="opacity:1" fill="#919191" d="M 242.5,45.5 C 247.27,46.5967 250.936,49.2634 253.5,53.5C 249.807,50.7972 246.14,48.1306 242.5,45.5 Z"/></g>
<g><path style="opacity:1" fill="#939393" d="M 327.5,44.5 C 332.037,46.3637 335.703,49.3637 338.5,53.5C 335.316,51.1582 331.983,48.9915 328.5,47C 327.748,46.3292 327.414,45.4959 327.5,44.5 Z"/></g>
<g><path style="opacity:1" fill="#a9a9a9" d="M 64.5,41.5 C 64.5,43.8333 64.5,46.1667 64.5,48.5C 66.1667,48.5 67.8333,48.5 69.5,48.5C 68.4489,49.2223 67.7822,50.2223 67.5,51.5C 66.1266,51.3433 64.7932,51.51 63.5,52C 62.8366,53.5185 61.8366,54.6851 60.5,55.5C 61.5437,50.6444 62.877,45.9777 64.5,41.5 Z"/></g>
<g><path style="opacity:1" fill="#a9a9a9" d="M 297.5,47.5 C 297.664,50.1873 297.497,52.854 297,55.5C 295.989,56.3366 294.822,56.67 293.5,56.5C 294.692,53.3259 296.025,50.3259 297.5,47.5 Z"/></g>
<g><path style="opacity:1" fill="#a4a4a4" d="M 80.5,45.5 C 81.9034,48.9085 82.5701,52.5752 82.5,56.5C 80.5,56.5 78.5,56.5 76.5,56.5C 76.5,55.1667 76.5,53.8333 76.5,52.5C 77.7348,52.7214 78.7348,53.3881 79.5,54.5C 80.4841,51.5719 80.8174,48.5719 80.5,45.5 Z"/></g>
<g><path style="opacity:1" fill="#7f7f7f" d="M 315.5,45.5 C 314.957,46.7421 314.623,48.0755 314.5,49.5C 315.182,51.8409 315.849,54.1743 316.5,56.5C 309.903,57.2363 306.903,54.2363 307.5,47.5C 308.6,49.2774 309.434,51.2774 310,53.5C 311.241,55.4206 312.741,55.754 314.5,54.5C 312.605,52.1329 312.105,49.4663 313,46.5C 313.671,45.7476 314.504,45.4142 315.5,45.5 Z"/></g>
<g><path style="opacity:1" fill="#848484" d="M 116.5,58.5 C 116.156,61.5623 115.489,64.5623 114.5,67.5C 110.529,60.7439 108.696,53.4106 109,45.5C 106.16,42.6293 103.826,42.9626 102,46.5C 101.819,49.6946 101.319,52.6946 100.5,55.5C 100.334,51.1539 100.501,46.8206 101,42.5C 103.401,41.3977 105.901,41.231 108.5,42C 110.525,47.0743 112.359,52.241 114,57.5C 114.342,59.6192 115.175,59.9526 116.5,58.5 Z"/></g>
</svg>
